<svg xmlns="http://www.w3.org/2000/svg" version="1.1" xmlns:xlink="http://www.w3.org/1999/xlink" xmlns:svgjs="http://svgjs.com/svgjs" width="1280" height="720" preserveAspectRatio="none" viewBox="0 0 1280 720"><g mask="url(&quot;#SvgjsMask1014&quot;)" fill="none"><rect width="1280" height="720" x="0" y="0" fill="rgba(204, 252, 203, 1)"></rect><path d="M0,444.079C81.376,425.489,111.037,325.812,174.666,271.785C227.135,227.234,295.274,207.558,340.09,155.314C396.574,89.467,463.098,19.846,465.182,-66.883C467.335,-156.456,412.162,-238.658,351.135,-304.26C291.381,-368.493,212.199,-412.02,126.53,-430.921C44.326,-449.058,-47.506,-451.217,-119.85,-408.173C-187.91,-367.678,-205.053,-280.18,-243.338,-210.853C-273.231,-156.721,-304.269,-105.83,-319.858,-45.989C-337.137,20.34,-352.428,87.486,-338.544,154.608C-322.357,232.862,-295.514,313.39,-234.778,365.322C-170.743,420.075,-82.136,462.843,0,444.079" fill="#b7fbb6"></path><path d="M1280 1188.008C1370.748 1195.04 1469.099 1181.592 1539.838 1124.316 1608.546 1068.684 1612.557 969.062 1649.567 888.7760000000001 1686.745 808.126 1754.82 740.043 1757.894 651.289 1761.212 555.502 1729.964 456.924 1667.028 384.639 1604.151 312.423 1510.021 274.123 1415.608 258.162 1327.542 243.274 1242.42 275.074 1156.17 298.274 1067.815 322.04 960.402 322.288 905.393 395.401 850.4929999999999 468.369 878.856 571.504 881.932 662.766 884.504 739.061 894.427 812.3199999999999 921.848 883.563 950.789 958.758 983.423 1033.774 1044.813 1085.958 1111.271 1142.45 1193.037 1181.27 1280 1188.008" fill="#e1fde1"></path></g><defs><mask id="SvgjsMask1014"><rect width="1280" height="720" fill="#ffffff"></rect></mask></defs></svg>